<svg width="226" height="364" viewBox="0 0 226 364" fill="none" xmlns="http://www.w3.org/2000/svg">
<path d="M139.939 70.6508C139.939 70.6508 111.475 59.1873 98.1053 71.2968C84.7357 83.4062 133.901 79.4201 139.939 70.6508Z" fill="#3F3D56"/>
<path d="M90.7888 16.2846C100.354 1.34613 119.279 0.649917 119.279 0.649917C119.279 0.649917 137.72 -1.52966 149.55 21.2219C160.577 42.4282 175.794 62.9033 152 67.8675L147.702 55.5038L145.04 68.788C141.653 69.0132 138.254 69.0669 134.86 68.9488C109.378 68.1884 85.1107 69.1713 85.8921 60.72C86.9308 49.4853 81.5848 30.6585 90.7888 16.2846Z" fill="#2F2E41"/>
<path d="M77.4039 287.094C77.4039 287.094 89.4797 307.822 97.2427 307.822C105.006 307.822 104.143 321.374 102.418 324.563C100.693 327.752 96.3801 334.927 103.281 345.291C105.691 348.911 105.26 353.017 103.678 356.829C99.2463 367.507 82.0072 364.272 82.5572 352.846C82.5633 352.72 82.5706 352.593 82.5793 352.466C83.4418 339.71 76.5414 319.78 69.641 314.997C62.7405 310.213 56.7026 297.458 56.7026 297.458L77.4039 287.094Z" fill="#FFB8B8"/>
<path d="M160.209 282.311C160.209 282.311 148.133 303.039 140.37 303.039C132.607 303.039 133.47 316.591 135.195 319.78C136.92 322.969 141.233 330.144 134.333 340.507C131.922 344.128 132.353 348.234 133.935 352.045C138.367 362.724 155.606 359.489 155.056 348.063C155.05 347.937 155.042 347.81 155.034 347.682C154.171 334.927 161.072 314.997 167.972 310.213C174.873 305.43 180.91 292.675 180.91 292.675L160.209 282.311Z" fill="#FFB8B8"/>
<path d="M150.721 180.268L155.896 190.631C155.896 190.631 231.801 213.751 224.901 240.856C218 267.961 184.361 310.213 179.185 308.619C174.01 307.025 146.408 302.241 145.546 288.689C144.683 275.136 165.385 251.22 165.385 251.22L136.92 227.303L95.5001 226.506L60.1529 251.22C60.1529 251.22 97.2427 281.514 80.8542 293.472C64.4656 305.43 40.3141 313.402 36.8639 308.619C33.4137 303.836 -5.40131 232.884 0.636571 226.506C6.67445 220.128 67.9158 196.212 67.9158 196.212L84.3044 174.687L148.133 171.498L150.721 180.268Z" fill="#2F2E41"/>
<path d="M135.195 48.7275C135.195 48.7275 130.882 75.0355 139.508 78.2243C148.133 81.4132 122.257 94.9658 122.257 94.9658H107.593L98.1053 76.6299C98.1053 76.6299 106.731 62.2801 101.556 48.7274C96.3802 35.1748 135.195 48.7275 135.195 48.7275Z" fill="#FFB8B8"/>
<path opacity="0.1" d="M135.195 48.7275C135.195 48.7275 130.882 75.0355 139.508 78.2243C148.133 81.4132 122.257 94.9658 122.257 94.9658H107.593L98.1053 76.6299C98.1053 76.6299 106.731 62.2801 101.556 48.7274C96.3802 35.1748 135.195 48.7275 135.195 48.7275Z" fill="black"/>
<path d="M141.233 71.0494C141.233 71.0494 131.745 80.616 130.02 82.2104C128.295 83.8049 120.532 92.5742 104.143 79.8188C87.7546 67.0635 86.0295 82.2104 86.0295 82.2104V177.876C86.0295 177.876 99.8304 172.296 111.044 177.876C122.257 183.457 145.546 176.282 145.546 176.282L149.859 77.4272L141.233 71.0494Z" fill="#D0CDE1"/>
<path d="M134.897 71.0494C134.897 71.0494 142.958 67.8606 149.858 71.0494C156.759 74.2383 180.91 90.1825 179.185 97.3575C177.46 104.532 155.034 154.757 170.56 178.673C186.086 202.59 188.673 208.967 188.673 208.967L150.721 190.631C150.721 190.631 121.394 173.89 123.982 163.526C126.57 153.162 134.897 71.0494 134.897 71.0494Z" fill="#3F3D56"/>
<path d="M100.683 71.0494C100.683 71.0494 82.5793 72.6439 81.7167 74.2383C80.8541 75.8327 54.5462 82.609 56.2714 89.784C57.9965 96.9589 81.7167 161.135 71.3661 173.093C61.0154 185.051 43.7643 201.792 49.8022 203.387C55.8401 204.981 66.1907 200.995 76.5414 203.387C86.892 205.778 111.044 185.848 108.456 164.323C105.868 142.799 108.436 76.6299 100.683 71.0494Z" fill="#3F3D56"/>
<path d="M143.821 223.317V231.289C143.821 231.289 148.133 249.625 134.333 248.828C120.532 248.031 129.157 226.506 129.157 226.506L130.02 219.331L143.821 223.317Z" fill="#FFB8B8"/>
<path d="M105.006 224.114C105.006 224.114 114.494 242.45 105.006 244.045C95.5176 245.639 88.6171 233.681 88.6171 230.492C88.6171 227.303 105.006 224.114 105.006 224.114Z" fill="#FFB8B8"/>
<path d="M92.4987 41.1539C93.4514 41.1539 94.2238 39.7262 94.2238 37.9651C94.2238 36.2039 93.4514 34.7762 92.4987 34.7762C91.5459 34.7762 90.7736 36.2039 90.7736 37.9651C90.7736 39.7262 91.5459 41.1539 92.4987 41.1539Z" fill="#FFB8B8"/>
<path d="M143.389 41.1539C144.342 41.1539 145.114 39.7262 145.114 37.9651C145.114 36.2039 144.342 34.7762 143.389 34.7762C142.437 34.7762 141.664 36.2039 141.664 37.9651C141.664 39.7262 142.437 41.1539 143.389 41.1539Z" fill="#FFB8B8"/>
<path d="M77.4039 81.4132C77.4039 81.4132 55.8401 81.4132 56.7026 89.3853C57.5652 97.3575 86.0295 234.478 86.0295 234.478C86.0295 234.478 98.1052 224.114 108.456 226.506L77.4039 81.4132Z" fill="#3F3D56"/>
<path d="M161.072 83.8048C161.072 83.8048 182.636 87.7909 182.636 99.7491C182.636 111.707 151.584 226.506 147.271 226.506C142.958 226.506 126.57 224.114 126.57 220.128C126.57 216.142 161.072 83.8048 161.072 83.8048Z" fill="#3F3D56"/>
<path opacity="0.2" d="M156.328 107.323L136.92 177.47C136.92 177.47 145.977 116.092 156.328 107.323Z" fill="black"/>
<path opacity="0.2" d="M80.8395 97.4661L100.468 189.18C100.468 189.18 94.1944 102.757 80.8395 97.4661Z" fill="black"/>
<path d="M117.944 61.4828C131.759 61.4828 142.958 51.132 142.958 38.3637C142.958 25.5953 131.759 15.2445 117.944 15.2445C104.129 15.2445 92.9299 25.5953 92.9299 38.3637C92.9299 51.132 104.129 61.4828 117.944 61.4828Z" fill="#FFB8B8"/>
<path d="M95.0179 14.8441L113.715 5.79312L139.534 9.49547L144.876 31.3017L131.579 30.8298L127.864 22.818V30.6973L121.728 30.4795L118.166 17.7242L115.941 31.3017L94.1273 30.891L95.0179 14.8441Z" fill="#2F2E41"/>
</svg>
